<svg width="509" height="505" viewBox="0 0 509 505" xmlns="http://www.w3.org/2000/svg"><g fill="none" fill-rule="evenodd"><rect stroke="#625FE2" stroke-width="6" stroke-linecap="round" x="48" y="125" width="413" height="287" rx="8"/><path d="M461 295.003v109.003c0 4.415-3.586 7.994-7.996 7.994H361V186h100v109.003zM101.998 412H55.996C51.58 412 48 408.423 48 404.006V186h100v226h-46.002zM461 159.497v-26.503c0-4.417-3.58-7.994-7.996-7.994H55.996c-4.41 0-7.996 3.58-7.996 7.994V186h413v-26.503z" stroke="#625FE2" stroke-width="6" stroke-linecap="round"/><path d="M398 125V97c0-6.63-5.37-12-11.993-12H123.993C117.363 85 112 90.372 112 97v28h286z" stroke="#625FE2" stroke-width="6"/><path d="M425 123.26L452.537 48M424.537 123.26L397 48M91 155h325.226M91 161v-12M171 163v-16M418 161v-12" stroke="#625FE2" stroke-width="6" stroke-linecap="round"/><circle stroke="#625FE2" stroke-width="6" stroke-linecap="round" cx="98" cy="338" r="35"/><circle stroke="#625FE2" stroke-width="6" stroke-linecap="round" cx="411" cy="338" r="35"/><circle stroke="#625FE2" stroke-width="6" stroke-linecap="round" cx="98" cy="258" r="25"/><circle stroke="#625FE2" stroke-width="6" stroke-linecap="round" cx="411" cy="258" r="25"/><ellipse fill="#625FE2" cx="98" cy="258" rx="7" ry="7"/><circle fill="#625FE2" cx="98" cy="338" r="10"/><circle fill="#625FE2" cx="411" cy="338" r="10"/><ellipse fill="#625FE2" cx="411" cy="258" rx="7" ry="7"/><path d="M305.127 350.747C293.56 335.127 274.994 325 254.064 325c-20.93 0-39.496 10.126-51.064 25.747M233 269c-6.683 9.024-17.408 14.874-29.5 14.874-12.092 0-22.817-5.85-29.5-14.874M335 269c-6.683 9.024-17.408 14.874-29.5 14.874-12.092 0-22.817-5.85-29.5-14.874M200.987 433h157.18M385 433h72.25M82 456h403.01" stroke="#625FE2" stroke-width="6" stroke-linecap="round"/></g></svg>