<?xml version="1.0" encoding="UTF-8" standalone="no"?>
<svg width="80px" height="474px" viewBox="0 0 80 474" version="1.1" xmlns="http://www.w3.org/2000/svg" xmlns:xlink="http://www.w3.org/1999/xlink">
    <!-- Generator: Sketch 41 (35326) - http://www.bohemiancoding.com/sketch -->
    <title>qatataq</title>
    <desc>Created with Sketch.</desc>
    <defs>
        <polygon id="path-1" points="0.418127113 67.5 46.6547192 67.5 46.6547192 0.0426214286 0.418127113 0.0426214286 0.418127113 67.5"></polygon>
        <polygon id="path-3" points="52.7256875 79.0714286 -1.76319781e-13 79.0714286 -1.76319781e-13 0.831214286 326.830648 0.831214286 326.830648 79.0714286 52.7256875 79.0714286 52.7256875 11.8049786 -4.73052123e-05 11.8049786 -4.73052123e-05 79.0716214 52.7256875 79.0716214"></polygon>
        <polygon id="path-5" points="0.26366062 67.5 52.9900787 67.5 52.9900787 0.23355 0.26366062 0.23355 0.26366062 67.5"></polygon>
        <polygon id="path-7" points="0.26366062 67.5 52.9900787 67.5 52.9900787 0.23355 0.26366062 0.23355 0.26366062 67.5"></polygon>
        <polygon id="path-9" points="0.0481489325 67.5 46.3576374 67.5 46.3576374 0.0426214286 0.0481489325 0.0426214286 0.0481489325 67.5"></polygon>
    </defs>
    <g id="Page-1" stroke="none" stroke-width="1" fill="none" fill-rule="evenodd">
        <g id="Desktop-HD-Copy" transform="translate(-49.000000, -280.000000)">
            <g id="Group-9" transform="translate(29.000000, 270.000000)">
                <g id="qatataq" transform="translate(57.500000, 242.000000) rotate(-90.000000) translate(-57.500000, -242.000000) translate(-184.500000, 184.500000)">
                    <g id="a" transform="translate(223.700747, 31.655321)">
                        <mask id="mask-2" fill="white">
                            <use xlink:href="#path-1"></use>
                        </mask>
                        <g id="Clip-2"></g>
                        <path d="M23.3223456,58.9122643 C23.3474155,58.8312643 23.3763424,58.7521929 23.3532009,58.9122643 L23.3223456,58.9122643 Z M28.4076807,33.0559071 C27.8966402,35.4743357 26.7684942,37.4299071 25.0213142,38.92455 C23.2741343,40.4191929 21.1296926,41.16555 18.5860609,41.16555 C13.8767744,41.16555 11.9541051,39.1309071 12.8141959,35.0596929 C13.2172429,33.1523357 14.3453889,31.5766929 16.1967055,30.3366214 C18.048022,29.09655 20.4682327,28.47555 23.4611944,28.47555 L29.375765,28.47555 L28.4076807,33.0559071 Z M36.8118864,49.2771214 L43.2857088,18.6321214 L43.341634,18.3621214 C45.9219064,6.14847857 40.661082,0.0426214286 27.5591606,0.0426214286 C20.749787,0.0426214286 15.299974,1.15540714 11.2058647,3.38290714 L8.96885719,13.9726929 C13.8979874,11.1106929 18.9389681,9.67969286 24.0898706,9.67969286 C27.4608095,9.67969286 29.6997454,10.3797643 30.8047499,11.7779786 C31.9058976,13.1781214 32.1758812,15.2127643 31.6127725,17.8857643 L30.9879531,20.8422643 L23.9278804,20.8422643 C17.4405588,20.8422643 12.2028757,22.1479071 8.21675985,24.7553357 C4.23064395,27.3627643 1.75643655,30.9556929 0.788352288,35.53605 C-0.0717385154,39.6072643 0.566579995,42.9784071 2.70523627,45.6494786 C4.84389255,48.3224786 8.20326067,49.65705 12.7833406,49.65705 C18.8560445,49.65705 23.4322676,47.64555 26.5332227,43.6379786 L23.306918,58.9122643 L22.390902,63.2476929 C21.8952891,65.5966929 23.3975554,67.5001929 25.7444848,67.5001929 L44.8400433,67.5001929 L46.6547192,58.9122643 L34.7773666,58.9122643 L36.8118864,49.2771214 Z" id="Fill-1" fill="#625FE2" mask="url(#mask-2)"></path>
                    </g>
                    <path d="M167.577894,64.7108429 C167.066853,67.1292714 165.938707,69.0848429 164.191527,70.5794857 C162.444347,72.0741286 160.299906,72.8224143 157.754345,72.8224143 C153.046987,72.8224143 151.124318,70.7858429 151.984409,66.7146286 C152.387456,64.8072714 153.515602,63.2316286 155.366918,61.9915571 C157.218235,60.7514857 159.638446,60.1304857 162.631407,60.1304857 L168.545978,60.1304857 L167.577894,64.7108429 Z M176.510496,78.4287714 L182.511847,50.0170571 C185.092119,37.8034143 179.831295,31.6975571 166.729374,31.6975571 C159.92,31.6975571 154.470187,32.8103429 150.376078,35.0378429 L148.13907,45.6276286 C153.0682,42.7656286 158.109181,41.3346286 163.260084,41.3346286 C166.631022,41.3346286 168.869958,42.0347 169.974963,43.4329143 C171.07611,44.8330571 171.346094,46.8677 170.782985,49.5407 L170.158166,52.4972 L163.098093,52.4972 C156.610772,52.4972 151.373089,53.8028429 147.386973,56.4102714 C143.400857,59.0196286 140.924721,62.6125571 139.958565,67.1929143 C139.098474,71.2622 139.736793,74.6333429 141.875449,77.3044143 C144.014105,79.9774143 147.373474,81.3119857 151.953554,81.3119857 C158.12268,81.3119857 162.756757,79.2464857 165.85964,75.1116286 L164.629286,80.9320571 L164.637,80.9320571 L162.612123,90.5672 L161.651752,94.9026286 C161.156139,97.2516286 162.656477,99.1551286 165.005335,99.1551286 L184.100894,99.1551286 L185.913641,90.5672 L173.972649,90.5672 L176.510496,78.4287714 Z" id="a" fill="#625FE2"></path>
                    <g id="q" transform="translate(0.000000, 20.083893)">
                        <mask id="mask-4" fill="white">
                            <use xlink:href="#path-3"></use>
                        </mask>
                        <g id="Clip-9"></g>
                        <path d="M30.3575413,47.6802643 C27.4706446,50.3513357 24.40633,51.6878357 21.1626692,51.6878357 C17.7917304,51.6878357 15.2615978,50.3378357 13.5761283,47.63205 C11.8887305,44.9301214 11.5358233,41.2561929 12.5174067,36.6121929 C13.4970617,31.9701214 15.3850189,28.2961929 18.1832067,25.5923357 C20.9813945,22.8884786 24.0013545,21.53655 27.2450154,21.53655 C30.5523152,21.53655 33.138373,22.7766214 34.9974033,25.2586929 C36.8602906,27.7388357 37.2729799,31.4281929 36.2393282,36.3267643 C35.203748,41.2253357 33.2425095,45.0091929 30.3575413,47.6802643 L30.3575413,47.6802643 Z M39.7047613,19.9146214 C37.4118286,14.5088357 33.11716,11.8049786 26.8207553,11.8049786 C20.5243507,11.8049786 15.0051133,14.0633357 10.2669001,18.5781214 C5.52868682,23.0967643 2.37952027,29.0444786 0.821328863,36.4212643 C-0.709864181,43.6726929 -0.100472491,49.6686214 2.65143239,54.4071214 C5.40333727,59.14755 9.9583473,61.5158357 16.3203194,61.5158357 C22.7440021,61.5158357 28.1803159,58.8119786 32.6311894,53.4061929 L27.2103032,79.0716214 L38.6576104,79.0716214 L52.7256875,12.4722643 L41.2764519,12.4722643 L39.7047613,19.9146214 Z" id="Fill-8" fill="#221F20" mask="url(#mask-4)"></path>
                    </g>
                    <path d="M121.059516,70.3877857 C120.199425,69.3386429 119.985367,67.7977143 120.415412,65.7611429 L125.614526,41.1448571 L137.636513,41.1448571 L139.451189,32.5569286 L127.429202,32.5569286 L129.887982,20.9160714 L118.438746,20.9160714 L115.979966,32.5569286 L108.728977,32.5569286 L106.914301,41.1448571 L114.165291,41.1448571 L109.006674,65.5702143 C106.775452,76.1291429 110.875347,81.4076429 121.308287,81.4076429 C124.804575,81.4076429 127.780181,80.8695714 130.237032,79.7857143 L132.313978,69.9596429 C129.994047,71.2942143 127.627833,71.9615 125.211479,71.9615 C123.302309,71.9615 121.919607,71.4369286 121.059516,70.3877857" id="t" fill="#625FE2"></path>
                    <path d="M205.591786,70.3877857 C204.729767,69.3386429 204.517637,67.7977143 204.947682,65.7611429 L210.146796,41.1448571 L222.168783,41.1448571 L223.98153,32.5569286 L211.961472,32.5569286 L214.420251,20.9160714 L202.971016,20.9160714 L200.512236,32.5569286 L193.259318,32.5569286 L191.44657,41.1448571 L198.69756,41.1448571 L193.538944,65.5702143 C191.307722,76.1291429 195.407616,81.4076429 205.840556,81.4076429 C209.336845,81.4076429 212.31245,80.8695714 214.767373,79.7857143 L216.844319,69.9596429 C214.526317,71.2942143 212.158174,71.9615 209.743749,71.9615 C207.834579,71.9615 206.449948,71.4369286 205.591786,70.3877857" id="t" fill="#625FE2"></path>
                    <g id="q" transform="translate(273.840570, 31.655321)">
                        <mask id="mask-6" fill="white">
                            <use xlink:href="#path-5"></use>
                        </mask>
                        <g id="Clip-16"></g>
                        <path d="M30.621161,36.1088357 C27.7342643,38.7799071 24.6718782,40.1164071 21.4282174,40.1164071 C18.0553501,40.1164071 15.5252175,38.7664071 13.8397481,36.0606214 C12.1523502,33.3586929 11.8013715,29.6847643 12.7810265,25.0407643 C13.7626099,20.3986929 15.6505671,16.7247643 18.4487549,14.0209071 C21.2450142,11.31705 24.2669028,9.96512143 27.5105636,9.96512143 C30.8178634,9.96512143 33.4019927,11.2051929 35.2629515,13.6872643 C37.1239103,16.1674071 37.5365996,19.8567643 36.5029479,24.7553357 C35.4673677,29.6539071 33.5080577,33.4377643 30.621161,36.1088357 L30.621161,36.1088357 Z M41.5400716,0.900835714 L39.968381,8.34319286 C37.6773768,2.93740714 33.3827082,0.23355 27.0843751,0.23355 C20.7879704,0.23355 15.2687331,2.49190714 10.5324483,7.00669286 C5.79423504,11.5253357 2.64314003,17.47305 1.08494862,24.8498357 C-0.446244421,32.1012643 0.163147269,38.0971929 2.9169806,42.8356929 C5.66695703,47.5761214 10.2238955,49.9444071 16.5839392,49.9444071 C23.0076218,49.9444071 28.4439357,47.24055 32.8948092,41.8347643 L27.4719945,67.5001929 L38.9231586,67.5001929 L52.9912357,0.900835714 L41.5400716,0.900835714 Z" id="Fill-15" fill="#625FE2" mask="url(#mask-6)"></path>
                    </g>
                    <g id="q" transform="translate(0.000000, 31.655321)">
                        <mask id="mask-8" fill="white">
                            <use xlink:href="#path-7"></use>
                        </mask>
                        <g id="Clip-16"></g>
                        <path d="M30.621161,36.1088357 C27.7342643,38.7799071 24.6718782,40.1164071 21.4282174,40.1164071 C18.0553501,40.1164071 15.5252175,38.7664071 13.8397481,36.0606214 C12.1523502,33.3586929 11.8013715,29.6847643 12.7810265,25.0407643 C13.7626099,20.3986929 15.6505671,16.7247643 18.4487549,14.0209071 C21.2450142,11.31705 24.2669028,9.96512143 27.5105636,9.96512143 C30.8178634,9.96512143 33.4019927,11.2051929 35.2629515,13.6872643 C37.1239103,16.1674071 37.5365996,19.8567643 36.5029479,24.7553357 C35.4673677,29.6539071 33.5080577,33.4377643 30.621161,36.1088357 L30.621161,36.1088357 Z M41.5400716,0.900835714 L39.968381,8.34319286 C37.6773768,2.93740714 33.3827082,0.23355 27.0843751,0.23355 C20.7879704,0.23355 15.2687331,2.49190714 10.5324483,7.00669286 C5.79423504,11.5253357 2.64314003,17.47305 1.08494862,24.8498357 C-0.446244421,32.1012643 0.163147269,38.0971929 2.9169806,42.8356929 C5.66695703,47.5761214 10.2238955,49.9444071 16.5839392,49.9444071 C23.0076218,49.9444071 28.4439357,47.24055 32.8948092,41.8347643 L27.4719945,67.5001929 L38.9231586,67.5001929 L52.9912357,0.900835714 L41.5400716,0.900835714 Z" id="Fill-15" fill="#625FE2" mask="url(#mask-8)"></path>
                    </g>
                    <g id="a" transform="translate(55.009078, 31.655321)">
                        <mask id="mask-10" fill="white">
                            <use xlink:href="#path-9"></use>
                        </mask>
                        <g id="Clip-19"></g>
                        <path d="M23.0252638,58.9122643 C23.0503337,58.8312643 23.0792605,58.7521929 23.0561191,58.9122643 L23.0252638,58.9122643 Z M28.0392461,33.0559071 C27.5282056,35.4743357 26.3981311,37.4299071 24.6528796,38.92455 C22.9056996,40.4191929 20.7593295,41.16555 18.2156978,41.16555 C13.5083398,41.16555 11.5856704,39.1309071 12.4457612,35.0596929 C12.8488083,33.1523357 13.9750258,31.5766929 15.8282708,30.3366214 C17.6795873,29.09655 20.099798,28.47555 23.0908313,28.47555 L29.0054019,28.47555 L28.0392461,33.0559071 Z M36.4415233,49.2771214 L36.4434517,49.2771214 L42.9731994,18.3621214 C45.5534718,6.14847857 40.2907189,0.0426214286 27.1887975,0.0426214286 C20.3813524,0.0426214286 14.9315394,1.15540714 10.8355016,3.38290714 L8.59849409,13.9726929 C13.5276243,11.1106929 18.5705334,9.67969286 23.721436,9.67969286 C27.0923748,9.67969286 29.3293823,10.3797643 30.4343868,11.7779786 C31.5355345,13.1781214 31.8074466,15.2127643 31.2424094,17.8857643 L30.61759,20.8422643 L23.5575173,20.8422643 C17.0701956,20.8422643 11.8325126,22.1479071 7.8483252,24.7553357 C3.8622093,27.3627643 1.38607345,30.9556929 0.417989183,35.53605 C-0.44210162,39.6072643 0.198145346,42.9784071 2.33680162,45.6494786 C4.4754579,48.3224786 7.83482602,49.65705 12.414906,49.65705 C18.547392,49.65705 23.1602556,47.6108357 26.2612108,43.5241929 L23.0098362,58.9122643 L22.0938202,63.2476929 C21.5982073,65.5966929 23.1004735,67.5001929 25.4474029,67.5001929 L44.5429615,67.5001929 L46.3576374,58.9122643 L34.4050751,58.9122643 L36.4415233,49.2771214 Z" id="Fill-18" fill="#625FE2" mask="url(#mask-10)"></path>
                    </g>
                    <text id="-fm" font-family="HindMadurai-SemiBold, Hind Madurai" font-size="84" font-weight="500" letter-spacing="5.98499918" fill="#625FE2">
                        <tspan x="337" y="82">-fm</tspan>
                    </text>
                </g>
            </g>
        </g>
    </g>
</svg>