<svg width="1190" height="465" viewBox="0 0 1190 465" xmlns="http://www.w3.org/2000/svg">
    <title>aaa</title>
    <path d="M193.208 227.84c-3.515 16.646-11.274 30.107-23.29 40.395-12.017 10.288-26.766 15.44-44.274 15.44-32.376 0-45.6-14.02-39.684-42.043 2.772-13.13 10.53-23.975 23.264-32.51 12.733-8.537 29.378-12.812 49.963-12.812h40.68l-6.66 31.53zm61.436 94.425l41.276-195.57C313.666 42.625 277.483.595 187.372.595c-46.833 0-84.315 7.66-112.474 22.992L59.513 96.48c33.9-19.7 68.572-29.55 103.998-29.55 23.19 0 38.59 4.82 46.19 14.444 7.58 9.638 9.43 23.643 5.56 42.042l-4.3 20.35H162.4c-44.62 0-80.64 8.988-108.058 26.936-27.414 17.962-44.445 42.693-51.09 74.222-5.915 28.01-1.525 51.216 13.184 69.602 14.71 18.4 37.814 27.585 69.315 27.585 42.43 0 74.3-14.21 95.64-42.67l-8.46 40.07h.06l-13.92 66.32-6.606 29.844c-3.41 16.17 6.91 29.27 23.065 29.27h131.33l12.466-59.113h-82.13l17.456-83.555zM640.26 227.84c-3.515 16.646-11.274 30.107-23.29 40.395-12.017 10.288-26.766 15.44-44.273 15.44-32.376 0-45.6-14.02-39.684-42.043 2.772-13.13 10.53-23.975 23.263-32.51 12.733-8.537 29.38-12.812 49.964-12.812h40.68l-6.66 31.53zm61.436 94.425l41.276-195.57C760.718 42.625 724.536.595 634.424.595c-46.833 0-84.315 7.66-112.473 22.992L506.57 96.48c33.902-19.7 68.572-29.55 104-29.55 23.183 0 38.582 4.82 46.182 14.444 7.572 9.638 9.43 23.643 5.556 42.042l-4.297 20.35h-48.56c-44.62 0-80.64 8.988-108.05 26.936-27.413 17.962-44.443 42.693-51.09 74.222-5.913 28.01-1.523 51.216 13.186 69.602 14.71 18.4 37.814 27.585 69.314 27.585 42.43 0 74.3-14.21 95.642-42.67l-8.466 40.06h.057l-13.925 66.32-6.605 29.85c-3.41 16.17 6.91 29.27 23.063 29.27H753.9l12.47-59.113h-82.13l17.454-83.555zm385.617-94.425c-3.515 16.646-11.274 30.107-23.29 40.395-12.017 10.288-26.766 15.44-44.274 15.44-32.38 0-45.6-14.02-39.69-42.043 2.77-13.13 10.53-23.975 23.26-32.51 12.73-8.537 29.372-12.812 49.96-12.812h40.68l-6.66 31.53zm61.436 94.425l41.27-195.57c17.74-84.07-18.44-126.1-108.55-126.1-46.84 0-84.32 7.66-112.48 22.992L953.62 96.48c33.9-19.7 68.572-29.55 103.998-29.55 23.184 0 38.583 4.82 46.183 14.444 7.57 9.638 9.43 23.643 5.56 42.042l-4.3 20.35h-48.56c-44.61 0-80.64 8.988-108.05 26.936-27.413 17.962-44.444 42.693-51.09 74.222-5.914 28.01-1.524 51.216 13.185 69.602 14.71 18.4 37.814 27.585 69.315 27.585 42.43 0 74.3-14.21 95.646-42.67l-8.46 40.07h.053l-13.927 66.323-6.605 29.843c-3.41 16.17 6.91 29.27 23.063 29.27h131.334l12.467-59.113h-82.13l17.455-83.558z" fill="#FFF" fill-rule="evenodd"/>
</svg>