<svg width="403" height="82" viewBox="0 0 403 82" xmlns="http://www.w3.org/2000/svg" xmlns:xlink="http://www.w3.org/1999/xlink">
    <title>logo</title>
    <defs>
        <path id="a" d="M.428 69.167H47.81V.044H.428v69.123z"/>
        <path id="c" d="M54.03 81.024H0V.852h413.022v80.172H54.032V12.096H0v68.928h54.03z"/>
        <path id="e" d="M.27 69.167h54.033V.24H.27v68.927z"/>
        <path id="g" d="M.27 69.167h54.033V.24H.27v68.927z"/>
        <path id="i" d="M.144 69.167H47.6V.044H.143v69.123z"/>
    </defs>
    <g fill="none" fill-rule="evenodd">
        <g transform="translate(229.238 11.037)">
            <mask id="b" fill="#fff">
                <use xlink:href="#a"/>
            </mask>
            <path d="M23.9 60.367c.025-.083.055-.164.03 0h-.03zm5.21-26.495c-.523 2.478-1.68 4.482-3.47 6.014-1.79 1.53-3.987 2.296-6.594 2.296-4.826 0-6.796-2.085-5.915-6.257.42-1.954 1.57-3.57 3.47-4.84 1.9-1.27 4.38-1.906 7.45-1.906h6.06l-.99 4.69zm8.613 16.622l6.634-31.402.057-.276C47.06 6.3 41.668.044 28.24.044c-6.977 0-12.56 1.14-16.757 3.422L9.19 14.318c5.052-2.933 10.218-4.4 15.496-4.4 3.455 0 5.75.718 6.88 2.15 1.13 1.436 1.406 3.52.83 6.26l-.64 3.03H24.52c-6.648 0-12.015 1.337-16.1 4.01C4.335 28.038 1.8 31.72.808 36.412-.074 40.585.58 44.04 2.772 46.777c2.192 2.74 5.634 4.106 10.328 4.106 6.223 0 10.912-2.06 14.09-6.168l-3.306 15.652-.94 4.442c-.507 2.4 1.033 4.35 3.438 4.35H45.95l1.86-8.8H35.638l2.085-9.88z" fill="#625FE2" mask="url(#b)"/>
        </g>
        <path d="M166.638 71.404c.048-.336-.073.35 0 0" fill="#221F20"/>
        <path d="M171.726 44.91c-.524 2.477-1.68 4.48-3.47 6.013-1.79 1.53-3.988 2.298-6.597 2.298-4.83 0-6.8-2.08-5.92-6.25.41-1.95 1.57-3.57 3.46-4.84s4.37-1.9 7.44-1.9h6.06l-.99 4.7zm9.154 14.056l6.15-29.113c2.644-12.516-2.747-18.772-16.174-18.772-6.977 0-12.562 1.14-16.758 3.43l-2.292 10.85c5.05-2.93 10.217-4.4 15.495-4.4 3.46 0 5.75.72 6.89 2.15 1.13 1.44 1.41 3.52.83 6.26l-.64 3.03h-7.23c-6.65 0-12.01 1.34-16.1 4.01-4.08 2.67-6.62 6.36-7.61 11.05-.88 4.17-.22 7.63 1.97 10.36 2.198 2.74 5.64 4.11 10.33 4.11 6.32 0 11.07-2.11 14.25-6.35l-1.26 5.97h.01l-2.074 9.88-.982 4.44c-.51 2.41 1.03 4.36 3.438 4.36h19.57l1.856-8.8H178.3l2.6-12.44z" fill="#625FE2"/>
        <g transform="translate(0 -.82)">
            <mask id="d" fill="#fff">
                <use xlink:href="#c"/>
            </mask>
            <path d="M31.11 48.858c-2.96 2.737-6.1 4.106-9.423 4.106-3.455 0-6.048-1.383-7.775-4.156-1.73-2.768-2.09-6.533-1.085-11.292 1.004-4.756 2.94-8.52 5.806-11.292 2.868-2.77 5.962-4.156 9.286-4.156 3.39 0 6.04 1.27 7.94 3.814 1.91 2.542 2.33 6.322 1.27 11.342-1.06 5.02-3.07 8.897-6.03 11.634zm9.578-28.452c-2.35-5.54-6.75-8.31-13.203-8.31-6.453 0-12.108 2.315-16.964 6.94-4.85 4.63-8.08 10.727-9.67 18.286-1.57 7.43-.94 13.575 1.88 18.43 2.82 4.858 7.49 7.285 14.01 7.285 6.58 0 12.16-2.77 16.72-8.31l-5.55 26.3h11.73l14.4-68.247H42.3l-1.61 7.626z" fill="#221F20" mask="url(#d)"/>
        </g>
        <path d="M124.056 50.726c-.88-1.075-1.1-2.654-.66-4.74l5.328-25.225h12.32l1.86-8.8h-12.32l2.52-11.92H121.37l-2.52 11.93h-7.43l-1.86 8.8h7.43l-5.285 25.03c-2.285 10.82 1.915 16.23 12.605 16.23 3.59 0 6.64-.55 9.15-1.66l2.13-10.07c-2.37 1.37-4.8 2.05-7.28 2.05-1.95 0-3.37-.53-4.25-1.61m86.627 0c-.88-1.07-1.1-2.65-.66-4.74l5.33-25.22h12.32l1.857-8.8h-12.32l2.52-11.93H208l-2.52 11.93h-7.433l-1.857 8.8h7.43l-5.287 25.03c-2.283 10.82 1.92 16.23 12.61 16.23 3.583 0 6.63-.55 9.148-1.66l2.13-10.065c-2.37 1.365-4.8 2.05-7.27 2.05-1.96 0-3.37-.54-4.25-1.614" fill="#625FE2"/>
        <g transform="translate(280.62 11.037)">
            <mask id="f" fill="#fff">
                <use xlink:href="#e"/>
            </mask>
            <path d="M31.38 37c-2.96 2.737-6.097 4.107-9.42 4.107-3.458 0-6.05-1.383-7.778-4.156-1.73-2.76-2.09-6.53-1.085-11.29 1.006-4.75 2.94-8.52 5.808-11.29 2.866-2.77 5.963-4.15 9.287-4.15 3.39 0 6.037 1.27 7.944 3.82 1.907 2.54 2.33 6.32 1.27 11.34s-3.07 8.9-6.027 11.64zM42.567.923l-1.61 7.626C38.61 3.01 34.207.24 27.755.24S15.647 2.553 10.793 7.18c-4.855 4.63-8.084 10.724-9.68 18.283-1.57 7.43-.946 13.575 1.876 18.43 2.81 4.858 7.48 7.285 14 7.285 6.58 0 12.15-2.77 16.71-8.31l-5.56 26.3h11.74L54.3.922H42.567z" fill="#625FE2" mask="url(#f)"/>
        </g>
        <g transform="translate(0 11.89)">
            <mask id="h" fill="#fff">
                <use xlink:href="#g"/>
            </mask>
            <path d="M31.38 37c-2.96 2.737-6.097 4.107-9.42 4.107-3.458 0-6.05-1.383-7.778-4.156-1.73-2.76-2.09-6.53-1.085-11.29 1.006-4.75 2.94-8.52 5.808-11.29 2.866-2.77 5.963-4.15 9.287-4.15 3.39 0 6.037 1.27 7.944 3.82 1.907 2.54 2.33 6.32 1.27 11.34s-3.07 8.9-6.027 11.64zM42.567.923l-1.61 7.626C38.61 3.01 34.207.24 27.755.24S15.647 2.553 10.793 7.18c-4.855 4.63-8.084 10.724-9.68 18.283-1.57 7.43-.946 13.575 1.876 18.43 2.81 4.858 7.48 7.285 14 7.285 6.58 0 12.15-2.77 16.71-8.31l-5.56 26.3h11.74L54.3.922H42.567z" fill="#625FE2" mask="url(#h)"/>
        </g>
        <g transform="translate(56.277 11.037)">
            <mask id="j" fill="#fff">
                <use xlink:href="#i"/>
            </mask>
            <path d="M23.69 60.367c.025-.083.055-.164.03 0h-.03zm5.138-26.495c-.524 2.478-1.682 4.482-3.47 6.014-1.79 1.53-3.99 2.296-6.597 2.296-4.82 0-6.79-2.085-5.91-6.257.42-1.954 1.57-3.57 3.47-4.84 1.9-1.27 4.38-1.906 7.45-1.906h6.06l-.99 4.69zm8.61 16.622h.002l6.69-31.678C46.776 6.3 41.383.044 27.957.044c-6.976 0-12.56 1.14-16.758 3.422L8.9 14.318c5.05-2.933 10.218-4.4 15.497-4.4 3.454 0 5.747.718 6.88 2.15 1.127 1.436 1.406 3.52.827 6.26l-.64 3.03H24.23c-6.647 0-12.014 1.337-16.097 4.01C4.05 28.038 1.513 31.72.52 36.413c-.88 4.172-.223 7.627 1.97 10.364 2.19 2.74 5.633 4.106 10.326 4.106 6.285 0 11.012-2.097 14.19-6.284l-3.332 15.76-.94 4.44c-.507 2.4 1.033 4.35 3.438 4.35H45.74l1.86-8.8H35.35l2.088-9.88z" fill="#625FE2" mask="url(#j)"/>
        </g>
        <path d="M356.588 38.232h-5.697l-5 23.524h-6.77l5-23.524h-4.17l1.08-5.077h4.18l.36-1.694c.68-3.19 2.1-5.69 4.25-7.5 2.15-1.8 4.79-2.71 7.91-2.71 1.43 0 2.64.17 3.62.51l-1.21 5.7c-.89-.37-1.8-.56-2.7-.56-2.74 0-4.44 1.54-5.1 4.63l-.35 1.64h5.7l-1.08 5.08zm42.054 23.525h-6.828l3.73-17.545c.816-3.835-.244-5.754-3.176-5.754-1.47 0-2.91.64-4.33 1.92-1.42 1.277-2.42 3.29-3.004 6.034l-3.263 15.345h-6.82l3.73-17.545c.82-3.835-.24-5.754-3.18-5.754-1.46 0-2.92.64-4.35 1.92-1.44 1.277-2.44 3.29-3.03 6.034l-3.26 15.345h-6.77l6.08-28.603h6.77l-.95 4.513c2.31-3.235 5.34-4.85 9.1-4.85 4.18 0 6.5 1.805 6.97 5.415 1.12-1.73 2.54-3.065 4.24-4.005 1.707-.94 3.518-1.41 5.437-1.41 2.894 0 4.95.872 6.154 2.62 1.21 1.75 1.47 4.244.784 7.477l-4.006 18.843z" fill="#8E8CE9"/>
    </g>
</svg>